<?xml version="1.0" encoding="UTF-8"?>
<svg id="Camada_1" data-name="Camada 1" xmlns="http://www.w3.org/2000/svg" viewBox="340 500 400 400">
  <defs>
    <style>
      .cls-1, .cls-2 {
        fill: #f27910;
      }

      .cls-2 {
        font-family: Righteous-Regular, Righteous;
        font-size: 35.06px;
      }
    </style>
  </defs>
  <text class="cls-2" transform="translate(539.47 574.65) rotate(5.74)"><tspan x="0" y="0">S</tspan></text>
  <text class="cls-2" transform="translate(561.31 576.77) rotate(18.92)"><tspan x="0" y="0">A</tspan></text>
  <text class="cls-2" transform="translate(583.63 584.57) rotate(31.75)"><tspan x="0" y="0">V</tspan></text>
  <text class="cls-2" transform="translate(601.44 596.11) rotate(40.6)"><tspan x="0" y="0">:</tspan></text>
  <text class="cls-2" transform="translate(609.61 603.2) rotate(46.8)"><tspan x="0" y="0"> </tspan></text>
  <text class="cls-2" transform="translate(617.25 610.65) rotate(56.46)"><tspan x="0" y="0">C</tspan></text>
  <text class="cls-2" transform="translate(629.82 628.99) rotate(70.58)"><tspan x="0" y="0">O</tspan></text>
  <text class="cls-2" transform="translate(638.77 655.16) rotate(85.59)"><tspan x="0" y="0">N</tspan></text>
  <text class="cls-2" transform="translate(640.46 679.79) rotate(98.82)"><tspan x="0" y="0">S</tspan></text>
  <text class="cls-2" transform="translate(637.18 701.47) rotate(112.09)"><tspan x="0" y="0">U</tspan></text>
  <text class="cls-2" transform="translate(627.83 723.76) rotate(124.85)"><tspan x="0" y="0">L</tspan></text>
  <text class="cls-2" transform="translate(618.21 738.01) rotate(134.78)"><tspan x="0" y="0">T</tspan></text>
  <text class="cls-2" transform="translate(604.41 752.54) rotate(148.13)"><tspan x="0" y="0">O</tspan></text>
  <text class="cls-2" transform="translate(580.74 766.87) rotate(162.71)"><tspan x="0" y="0">R</tspan></text>
  <text class="cls-2" transform="translate(557.99 773.29) rotate(172.46)"><tspan x="0" y="0">I</tspan></text>
  <text class="cls-2" transform="translate(547.84 775.17) rotate(-177.76)"><tspan x="0" y="0">A</tspan></text>
  <text class="cls-2" transform="translate(523.51 773.56) rotate(-167.79)"><tspan x="0" y="0"> </tspan></text>
  <text class="cls-2" transform="translate(513.02 771.8) rotate(-157.93)"><tspan x="0" y="0">D</tspan></text>
  <text class="cls-2" transform="translate(491.35 762.79) rotate(-145.26)"><tspan x="0" y="0">E</tspan></text>
  <text class="cls-2" transform="translate(474.26 750.35) rotate(-136.19)"><tspan x="0" y="0"> </tspan></text>
  <text class="cls-2" transform="translate(466.22 743.38) rotate(-126.23)"><tspan x="0" y="0">A</tspan></text>
  <text class="cls-2" transform="translate(452.16 723.75) rotate(-113.5)"><tspan x="0" y="0">L</tspan></text>
  <text class="cls-2" transform="translate(444.38 704.68) rotate(-104.55)"><tspan x="0" y="0">I</tspan></text>
  <text class="cls-2" transform="translate(440.96 694.99) rotate(-93.18)"><tspan x="0" y="0">M</tspan></text>
  <text class="cls-2" transform="translate(439.89 665.89) rotate(-79.02)"><tspan x="0" y="0">E</tspan></text>
  <text class="cls-2" transform="translate(443.7 645.41) rotate(-65.89)"><tspan x="0" y="0">N</tspan></text>
  <text class="cls-2" transform="translate(454.04 622.99) rotate(-52.86)"><tspan x="0" y="0">T</tspan></text>
  <text class="cls-2" transform="translate(465.79 606.74) rotate(-39.51)"><tspan x="0" y="0">O</tspan></text>
  <text class="cls-2" transform="translate(487.41 589.43) rotate(-25.38)"><tspan x="0" y="0">S</tspan></text>
  <g>
    <path class="cls-1" d="M497.82,699.11l-12.92,12.26c-8.95-11.66-14.29-26.25-14.29-42.06,0-34.94,26.05-63.92,59.75-68.53v17.92c-23.9,4.44-42.06,25.45-42.06,50.62,0,11.09,3.53,21.39,9.52,29.8Z"/>
    <path class="cls-1" d="M569.16,732.12s-.8.32-1.57.62l-1.17.46c-8.33,3.5-17.34,5.31-26.62,5.31-15.9,0-30.56-5.4-42.26-14.45l13.02-12.37c8.31,5.76,18.39,9.13,29.24,9.13,3.87,0,7.68-.43,11.39-1.27,2.56-.58,5.25.22,7.14,2.04l10.75,10.3.09.24Z"/>
    <path class="cls-1" d="M608.97,669.32c0,6.52-.9,12.97-2.7,19.18q-.14.54-4.1,10.48l-.08-.04-10.09-9.8c-2.03-1.97-2.9-4.89-2.17-7.63,1.06-3.98,1.36-7.98,1.44-12.19,0-25.5-18.64-46.74-43.02-50.78v-17.88c34.17,4.18,60.72,33.38,60.72,68.66Z"/>
    <path class="cls-1" d="M580.7,697.54c-4.3-4.18-5.96-10.45-4.09-16.14,1.25-3.81,1.93-7.87,1.93-12.09,0-18.47-12.98-33.95-30.29-37.82-2.72-.62-5.56-.93-8.46-.93-3.25,0-6.41.41-9.43,1.16-16.83,4.22-29.32,19.47-29.32,37.59,0,7.69,2.26,14.87,6.13,20.9,3.27,5.08,7.68,9.35,12.88,12.43,5.78,3.44,12.53,5.42,19.74,5.42,4.09,0,8.04-.64,11.75-1.82,5.47-1.74,11.46-.2,15.6,3.79l22.13,21.35h26.24l-34.8-33.84ZM539.79,690.37c-11.61,0-21.05-9.44-21.05-21.05s9.44-21.05,21.05-21.05,21.05,9.44,21.05,21.05-9.44,21.05-21.05,21.05Z"/>
  </g>
</svg>