<?xml version="1.0" encoding="UTF-8"?>
<svg id="Camada_1" data-name="Camada 1" xmlns="http://www.w3.org/2000/svg" viewBox="0 0 1080 1350">
  <defs>
    <style>
      .cls-1 {
        fill: #f27910;
      }

      .cls-2 {
        fill: #f2ba31;
      }
    </style>
  </defs>
  <rect class="cls-1" x="-136" y="137" width="1350" height="1080" transform="translate(-138 1216) rotate(-90)"/>
  <g>
    <g>
      <path class="cls-2" d="M694.57,617.16l-25.72,94.98h-4.02l-25.72-94.98h-29.96l35.33,116.6h44.73l35.34-116.6h-29.97Z"/>
      <path class="cls-2" d="M355.47,733.76v-25.04h68.53c2.98,0,5.57-1.08,7.7-3.2,2.13-2.12,3.2-4.71,3.2-7.7,0-4.64-2.58-6.49-4.12-7.18-1.93-.87-4.21-1.3-6.78-1.3h-32.6c-4.98,0-9.7-.96-14.03-2.84-4.36-1.9-8.21-4.51-11.43-7.78-3.23-3.27-5.81-7.13-7.68-11.49-1.85-4.34-2.79-9.06-2.79-14.05s.94-9.71,2.79-14.05c1.86-4.36,4.44-8.2,7.66-11.43,3.22-3.22,7.07-5.8,11.43-7.66,4.34-1.85,9.07-2.79,14.05-2.79h60.38v25.04h-60.38c-2.98,0-5.57,1.08-7.7,3.2-2.13,2.12-3.2,4.71-3.2,7.7s1.07,5.69,3.18,7.84c2.13,2.18,4.72,3.28,7.72,3.28h32.6c4.95,0,9.68.84,14.06,2.5,4.35,1.65,8.19,3.98,11.41,6.91,3.2,2.92,5.77,6.48,7.65,10.59,1.87,4.09,2.82,8.64,2.82,13.52s-.95,9.68-2.84,13.97c-1.9,4.33-4.51,8.19-7.75,11.46-3.22,3.26-7.06,5.85-11.41,7.71-4.34,1.85-9.02,2.79-13.94,2.79h-68.53Z"/>
    </g>
    <g>
      <path class="cls-2" d="M499.95,702.79l-11.17,10.6c-7.74-10.08-12.35-22.69-12.35-36.36,0-30.2,22.52-55.26,51.65-59.24v15.49c-20.66,3.84-36.36,22-36.36,43.75,0,9.59,3.05,18.49,8.23,25.75Z"/>
      <path class="cls-2" d="M561.61,731.32s-.69.27-1.36.53l-1.01.4c-7.2,3.02-14.99,4.59-23.01,4.59-13.75,0-26.42-4.66-36.53-12.49l11.25-10.7c7.18,4.98,15.89,7.89,25.27,7.89,3.35,0,6.64-.37,9.84-1.1,2.22-.5,4.53.19,6.18,1.76l9.29,8.91.08.21Z"/>
      <path class="cls-2" d="M596.03,677.04c0,5.64-.78,11.21-2.34,16.58q-.12.46-3.55,9.05l-.07-.03-8.72-8.47c-1.76-1.71-2.51-4.23-1.88-6.6.92-3.44,1.18-6.9,1.25-10.53,0-22.04-16.12-40.4-37.19-43.9v-15.45c29.53,3.62,52.49,28.86,52.49,59.35Z"/>
      <path class="cls-2" d="M571.59,701.44c-3.72-3.61-5.15-9.03-3.54-13.95,1.08-3.29,1.67-6.8,1.67-10.45,0-15.96-11.22-29.35-26.18-32.69-2.35-.53-4.8-.81-7.31-.81-2.81,0-5.54.35-8.15,1.01-14.54,3.65-25.34,16.83-25.34,32.49,0,6.65,1.95,12.85,5.3,18.07,2.83,4.39,6.64,8.08,11.13,10.75,5,2.97,10.83,4.68,17.06,4.68,3.54,0,6.95-.55,10.16-1.57,4.73-1.51,9.91-.17,13.48,3.28l19.13,18.45h22.68l-30.09-29.25ZM536.23,695.24c-10.03,0-18.19-8.16-18.19-18.2s8.16-18.2,18.19-18.2,18.19,8.16,18.19,18.2-8.16,18.2-18.19,18.2Z"/>
    </g>
  </g>
</svg>