<?xml version="1.0" encoding="UTF-8"?>
<svg id="Camada_1" data-name="Camada 1" xmlns="http://www.w3.org/2000/svg" viewBox="0 0 1080 1350">
  <defs>
    <style>
      .cls-1 {
        fill: #f27910;
      }

      .cls-2 {
        fill: #f2ba31;
      }
    </style>
  </defs>
  <rect class="cls-2" x="-135" y="137.26" width="1350" height="1080" transform="translate(-137.26 1217.26) rotate(-90)"/>
  <g>
    <g>
      <path class="cls-1" d="M558.94,647.36l-4.96,4.98c-.25-.69-.59-1.32-1.02-1.87-.43-.55-.91-1.02-1.45-1.4-.54-.38-1.12-.67-1.75-.87-.63-.2-1.27-.3-1.93-.3-.93,0-1.8.19-2.62.57-.82.38-1.53.91-2.13,1.6-.6.69-1.08,1.5-1.43,2.44-.35.94-.52,1.98-.52,3.12,0,.93.17,1.79.52,2.6.35.81.82,1.52,1.43,2.13.6.61,1.31,1.09,2.13,1.44.82.35,1.69.52,2.62.52.66,0,1.3-.09,1.91-.27.61-.18,1.19-.44,1.72-.78.54-.34,1.02-.75,1.44-1.24.42-.49.76-1.03,1.03-1.62l4.96,4.98c-.63.89-1.35,1.69-2.17,2.41-.82.71-1.7,1.31-2.65,1.81-.95.5-1.95.87-3,1.13-1.05.26-2.13.38-3.24.38-1.87,0-3.62-.35-5.27-1.05-1.64-.7-3.08-1.67-4.31-2.89-1.23-1.22-2.2-2.65-2.91-4.29-.71-1.64-1.07-3.39-1.07-5.26,0-2.03.36-3.93,1.07-5.7s1.68-3.31,2.91-4.62c1.23-1.31,2.67-2.35,4.31-3.11,1.65-.76,3.4-1.14,5.27-1.14,1.11,0,2.19.14,3.26.42,1.07.28,2.08.69,3.05,1.23.97.54,1.86,1.19,2.68,1.97.82.78,1.53,1.67,2.12,2.68Z"/>
      <path class="cls-1" d="M588.72,655.12c0,1.98-.36,3.83-1.07,5.54s-1.68,3.19-2.9,4.44c-1.22,1.25-2.66,2.23-4.3,2.95-1.64.72-3.41,1.08-5.29,1.08s-3.62-.36-5.27-1.08c-1.64-.72-3.08-1.7-4.31-2.95-1.23-1.25-2.2-2.73-2.91-4.44s-1.07-3.56-1.07-5.54.36-3.88,1.07-5.6c.71-1.72,1.68-3.2,2.91-4.45s2.67-2.23,4.31-2.94c1.65-.71,3.4-1.07,5.27-1.07s3.65.33,5.29,1c1.65.67,3.08,1.62,4.3,2.85,1.22,1.23,2.19,2.71,2.9,4.44s1.07,3.65,1.07,5.76ZM581.9,655.12c0-1.09-.18-2.08-.53-2.96-.36-.88-.84-1.64-1.45-2.28-.61-.64-1.33-1.12-2.15-1.46-.82-.34-1.69-.51-2.61-.51s-1.8.17-2.62.51c-.82.34-1.53.83-2.13,1.46-.6.64-1.08,1.4-1.43,2.28-.35.88-.52,1.87-.52,2.96,0,1.03.17,1.98.52,2.85.35.88.82,1.64,1.43,2.28.6.64,1.31,1.15,2.13,1.53.82.37,1.69.56,2.62.56s1.8-.17,2.61-.52c.82-.35,1.53-.83,2.15-1.46s1.1-1.39,1.45-2.28.53-1.88.53-2.95Z"/>
      <path class="cls-1" d="M600.45,668.63h-6.77v-26.56h1.64l2.23,2.58c1.09-.99,2.33-1.76,3.71-2.29,1.38-.54,2.82-.81,4.33-.81,1.62,0,3.15.31,4.59.93,1.44.62,2.69,1.47,3.77,2.55,1.07,1.08,1.92,2.35,2.54,3.79.62,1.45.93,2.99.93,4.62v15.17h-6.77v-15.17c0-.69-.13-1.35-.4-1.97-.27-.62-.63-1.16-1.09-1.62-.46-.46-1-.83-1.61-1.09s-1.26-.4-1.96-.4-1.38.13-2.01.4c-.63.26-1.17.63-1.64,1.09-.46.46-.83,1-1.09,1.62-.27.62-.4,1.28-.4,1.97v15.17Z"/>
      <path class="cls-1" d="M638.02,668.63h-15.47v-6.74h15.47c.46,0,.86-.16,1.19-.5.33-.33.5-.73.5-1.19s-.17-.79-.5-.94c-.33-.15-.73-.22-1.19-.22h-7.04c-1.17,0-2.27-.22-3.3-.67-1.03-.45-1.92-1.05-2.68-1.82-.76-.77-1.36-1.67-1.8-2.69-.44-1.03-.66-2.12-.66-3.3s.22-2.27.66-3.3c.44-1.03,1.04-1.92,1.8-2.68.76-.76,1.65-1.36,2.68-1.8,1.03-.44,2.13-.66,3.3-.66h13.71v6.74h-13.71c-.46,0-.86.17-1.19.5s-.5.73-.5,1.19.17.89.5,1.23.73.51,1.19.51h7.04c1.16,0,2.25.19,3.27.58s1.92.93,2.68,1.62c.76.69,1.36,1.53,1.81,2.5.45.97.67,2.04.67,3.2s-.22,2.27-.67,3.29c-.45,1.02-1.05,1.91-1.81,2.68-.76.77-1.65,1.37-2.68,1.81s-2.12.66-3.27.66Z"/>
      <path class="cls-1" d="M670.78,665.53c-.54.5-1.13.96-1.75,1.4-.62.44-1.27.82-1.95,1.14-.68.32-1.38.58-2.1.77-.72.19-1.45.29-2.19.29-1.64,0-3.17-.29-4.61-.87-1.44-.58-2.7-1.4-3.78-2.47-1.08-1.07-1.93-2.36-2.55-3.89-.62-1.53-.93-3.24-.93-5.14v-14.68h6.74v14.68c0,.89.14,1.69.41,2.39.27.7.64,1.29,1.1,1.77.46.48,1,.84,1.62,1.09.62.25,1.29.37,2,.37s1.35-.16,1.97-.48c.62-.32,1.16-.75,1.62-1.28.46-.53.83-1.13,1.09-1.8.26-.67.4-1.36.4-2.07v-14.68h6.77v26.56h-1.64l-2.23-3.1Z"/>
      <path class="cls-1" d="M687.84,668.63h-6.82v-37.12h6.82v37.12Z"/>
      <path class="cls-1" d="M707.53,668.63c-1.64,0-3.17-.31-4.61-.93-1.44-.62-2.7-1.47-3.78-2.55-1.08-1.08-1.93-2.34-2.55-3.78-.62-1.44-.93-2.98-.93-4.61v-7.88h-3.3v-6.74h3.3v-10.61h6.74v10.61h10.27v6.74h-10.27v7.88c0,.71.13,1.38.4,2,.26.62.63,1.16,1.09,1.62.46.46,1.01.83,1.64,1.1.63.27,1.3.41,2.01.41h5.13v6.74h-5.13Z"/>
      <path class="cls-1" d="M743.34,655.12c0,1.98-.36,3.83-1.07,5.54s-1.68,3.19-2.9,4.44c-1.22,1.25-2.66,2.23-4.3,2.95-1.64.72-3.41,1.08-5.29,1.08s-3.62-.36-5.27-1.08c-1.64-.72-3.08-1.7-4.31-2.95-1.23-1.25-2.2-2.73-2.91-4.44s-1.07-3.56-1.07-5.54.36-3.88,1.07-5.6c.71-1.72,1.68-3.2,2.91-4.45s2.67-2.23,4.31-2.94c1.65-.71,3.4-1.07,5.27-1.07s3.65.33,5.29,1c1.65.67,3.08,1.62,4.3,2.85,1.22,1.23,2.19,2.71,2.9,4.44s1.07,3.65,1.07,5.76ZM736.52,655.12c0-1.09-.18-2.08-.53-2.96-.36-.88-.84-1.64-1.45-2.28-.61-.64-1.33-1.12-2.15-1.46-.82-.34-1.69-.51-2.61-.51s-1.8.17-2.62.51c-.82.34-1.53.83-2.13,1.46-.6.64-1.08,1.4-1.43,2.28-.35.88-.52,1.87-.52,2.96,0,1.03.17,1.98.52,2.85.35.88.82,1.64,1.43,2.28.6.64,1.31,1.15,2.13,1.53.82.37,1.69.56,2.62.56s1.8-.17,2.61-.52c.82-.35,1.53-.83,2.15-1.46s1.1-1.39,1.45-2.28.53-1.88.53-2.95Z"/>
      <path class="cls-1" d="M755.07,668.63h-6.77v-26.56h1.64l2.23,3.15c1.09-.99,2.33-1.76,3.72-2.29,1.39-.54,2.83-.81,4.32-.81h5.97v6.74h-5.97c-.71,0-1.38.13-2.01.4-.63.26-1.17.63-1.64,1.09-.46.46-.83,1.01-1.09,1.64-.27.63-.4,1.3-.4,2.01v14.63Z"/>
      <path class="cls-1" d="M778.53,634.86c0,.63-.12,1.22-.36,1.76-.24.55-.57,1.02-.98,1.43-.41.41-.9.73-1.45.97s-1.15.36-1.77.36-1.22-.12-1.77-.36-1.03-.56-1.44-.97c-.41-.4-.73-.88-.97-1.43-.24-.55-.36-1.13-.36-1.76s.12-1.19.36-1.75c.24-.55.56-1.03.97-1.44.4-.4.88-.73,1.44-.97s1.15-.36,1.77-.36,1.22.12,1.77.36,1.04.56,1.45.97c.41.41.74.88.98,1.44.24.55.36,1.14.36,1.75ZM777.36,668.63h-6.82v-26.56h6.82v26.56Z"/>
      <path class="cls-1" d="M809.45,668.63h-1.64l-2.63-3.65c-.64.58-1.33,1.12-2.05,1.62-.72.5-1.48.94-2.27,1.31-.79.37-1.61.67-2.44.88-.84.21-1.68.32-2.54.32-1.87,0-3.62-.31-5.27-.94-1.64-.63-3.08-1.54-4.31-2.74-1.23-1.2-2.2-2.67-2.91-4.4-.71-1.74-1.07-3.71-1.07-5.93,0-2.07.36-3.96,1.07-5.69.71-1.73,1.68-3.21,2.91-4.45,1.23-1.24,2.67-2.2,4.31-2.89,1.64-.69,3.4-1.03,5.27-1.03.86,0,1.71.11,2.55.32s1.66.51,2.45.89c.79.38,1.55.83,2.27,1.34.72.51,1.39,1.07,2.02,1.66l2.63-3.15h1.64v26.51ZM802.63,655.12c0-.93-.18-1.82-.53-2.69s-.84-1.64-1.45-2.31c-.61-.67-1.33-1.21-2.15-1.61s-1.69-.61-2.62-.61-1.8.16-2.62.47c-.82.31-1.53.78-2.13,1.39-.6.61-1.08,1.37-1.43,2.27-.35.9-.52,1.93-.52,3.09s.17,2.19.52,3.09c.35.9.82,1.66,1.43,2.27.6.61,1.31,1.08,2.13,1.39.82.31,1.69.47,2.62.47s1.8-.2,2.62-.61c.82-.4,1.53-.94,2.15-1.61.61-.67,1.1-1.44,1.45-2.31s.53-1.76.53-2.69Z"/>
      <path class="cls-1" d="M560.63,711.37h-1.59l-2.56-3.55c-.63.56-1.29,1.09-1.99,1.58-.7.49-1.44.92-2.21,1.28-.77.36-1.56.65-2.38.86-.81.21-1.64.31-2.47.31-1.82,0-3.53-.34-5.13-1.03-1.6-.68-3-1.63-4.2-2.85-1.2-1.21-2.14-2.65-2.83-4.32-.69-1.67-1.04-3.48-1.04-5.44s.35-3.76,1.04-5.43c.69-1.67,1.64-3.12,2.83-4.34,1.2-1.22,2.6-2.18,4.2-2.87,1.6-.69,3.31-1.04,5.13-1.04.58,0,1.18.05,1.8.14.62.1,1.22.25,1.81.47.59.22,1.14.5,1.65.86.51.35.95.79,1.3,1.3v-12.06h6.63v36.12ZM554,698.22c0-.9-.17-1.77-.52-2.62s-.82-1.59-1.41-2.24c-.6-.65-1.29-1.17-2.09-1.57-.8-.39-1.64-.59-2.55-.59s-1.75.16-2.54.48c-.8.32-1.49.78-2.08,1.39-.59.6-1.05,1.34-1.39,2.21-.34.87-.51,1.85-.51,2.94,0,.95.17,1.85.51,2.7.34.85.8,1.6,1.39,2.24.59.64,1.28,1.15,2.08,1.52s1.64.56,2.54.56,1.75-.2,2.55-.59c.8-.39,1.49-.92,2.09-1.57.59-.65,1.07-1.4,1.41-2.24.35-.84.52-1.72.52-2.62Z"/>
      <path class="cls-1" d="M576.17,704.93c.24.12.49.2.74.26.25.06.5.11.76.14.64.09,1.26.09,1.88,0,.61-.09,1.2-.27,1.76-.52.56-.25,1.08-.59,1.55-1,.47-.41.88-.89,1.21-1.43l4.11,5.47c-.73.78-1.53,1.45-2.41,2.03-.88.58-1.82,1.04-2.8,1.39s-2,.58-3.04.68c-1.05.11-2.1.09-3.17-.06-1.8-.25-3.45-.82-4.94-1.71-1.49-.89-2.75-2.01-3.77-3.37-1.02-1.36-1.76-2.91-2.21-4.66-.46-1.74-.55-3.6-.27-5.58.28-2.02.88-3.82,1.8-5.4.92-1.58,2.05-2.87,3.4-3.89,1.35-1.01,2.86-1.74,4.54-2.17s3.41-.52,5.21-.27c1.07.15,2.09.42,3.08.82.98.4,1.9.9,2.75,1.5s1.62,1.31,2.33,2.11c.7.8,1.29,1.68,1.78,2.62l-14.29,13.04ZM581.39,691.94c-.29-.15-.57-.27-.86-.34-.29-.07-.6-.13-.91-.18-.89-.12-1.76-.08-2.59.14-.83.22-1.59.59-2.25,1.11-.67.53-1.23,1.19-1.68,2-.45.81-.75,1.74-.9,2.81-.03.24-.06.51-.08.82-.02.31-.02.62,0,.94.01.32.04.63.08.92s.11.57.2.81l9-9.03Z"/>
      <path class="cls-1" d="M633.98,711.37h-1.59l-2.56-3.55c-.63.56-1.29,1.09-1.99,1.58-.7.49-1.44.92-2.21,1.28-.77.36-1.56.65-2.38.86-.81.21-1.64.31-2.47.31-1.82,0-3.53-.31-5.13-.92s-3-1.5-4.2-2.67c-1.2-1.17-2.14-2.59-2.83-4.28-.69-1.69-1.04-3.61-1.04-5.77,0-2.01.35-3.86,1.04-5.54.69-1.68,1.64-3.12,2.83-4.33,1.2-1.21,2.6-2.14,4.2-2.81,1.6-.67,3.31-1,5.13-1,.84,0,1.66.11,2.49.31.82.21,1.62.5,2.39.87.77.37,1.51.8,2.21,1.3.7.5,1.35,1.04,1.96,1.62l2.56-3.06h1.59v25.79ZM627.35,698.22c0-.9-.17-1.77-.52-2.62s-.82-1.59-1.41-2.24c-.6-.65-1.29-1.17-2.09-1.57-.8-.39-1.64-.59-2.55-.59s-1.75.15-2.54.46c-.8.31-1.49.76-2.08,1.35-.59.6-1.05,1.33-1.39,2.21-.34.88-.51,1.88-.51,3s.17,2.13.51,3c.34.88.8,1.61,1.39,2.21.59.6,1.28,1.05,2.08,1.35.79.31,1.64.46,2.54.46s1.75-.2,2.55-.59c.8-.39,1.49-.92,2.09-1.57.59-.65,1.07-1.4,1.41-2.24.35-.84.52-1.72.52-2.62Z"/>
      <path class="cls-1" d="M646.82,711.37h-6.63v-36.12h6.63v36.12Z"/>
      <path class="cls-1" d="M660.79,678.51c0,.61-.12,1.18-.35,1.71-.23.53-.55.99-.95,1.39-.4.39-.87.71-1.41.94-.54.23-1.12.35-1.73.35s-1.19-.12-1.72-.35c-.54-.23-1-.55-1.4-.94-.39-.39-.71-.86-.94-1.39s-.35-1.1-.35-1.71.12-1.16.35-1.7c.23-.54.55-1,.94-1.4.39-.39.86-.71,1.4-.94.54-.23,1.11-.35,1.72-.35s1.19.12,1.73.35c.54.23,1.01.55,1.41.94.4.39.72.86.95,1.4.23.54.35,1.11.35,1.7ZM659.66,711.37h-6.63v-25.84h6.63v25.84Z"/>
      <path class="cls-1" d="M698.72,711.37h-6.56v-16.41c0-.45-.09-.88-.25-1.28-.17-.4-.41-.76-.71-1.06-.31-.3-.66-.54-1.06-.71-.4-.17-.83-.25-1.28-.25s-.87.08-1.27.25c-.39.17-.74.41-1.04.71-.3.31-.53.66-.7,1.06-.17.4-.25.83-.25,1.28v16.41h-6.59v-16.41c0-.45-.09-.88-.25-1.28-.17-.4-.41-.76-.71-1.06-.31-.3-.66-.54-1.06-.71-.4-.17-.83-.25-1.28-.25s-.87.08-1.27.25c-.39.17-.74.41-1.04.71-.3.31-.53.66-.7,1.06-.17.4-.25.83-.25,1.28v16.41h-6.59v-25.84h1.59l1.78,1.98c.92-.77,1.93-1.37,3.03-1.8s2.25-.64,3.44-.64,2.38.23,3.53.68c1.15.45,2.16,1.23,3.03,2.34.4-.55.86-1.01,1.38-1.4.51-.39,1.06-.7,1.63-.94s1.16-.41,1.77-.52,1.22-.16,1.81-.16c1.37,0,2.65.26,3.85.77s2.24,1.22,3.14,2.11c.89.89,1.6,1.94,2.11,3.15.52,1.21.77,2.49.77,3.86v16.41Z"/>
      <path class="cls-1" d="M714.99,705.04c.26.08.51.13.77.16.26.02.51.04.77.04.64,0,1.26-.09,1.86-.27.59-.18,1.15-.43,1.68-.76.52-.33.99-.73,1.4-1.21.41-.47.74-1,1-1.58l4.83,4.85c-.61.87-1.32,1.65-2.11,2.34-.8.69-1.66,1.28-2.58,1.76s-1.9.85-2.92,1.1c-1.02.25-2.07.37-3.15.37-1.82,0-3.53-.34-5.13-1.01s-3-1.62-4.2-2.82c-1.2-1.21-2.14-2.64-2.83-4.31-.69-1.66-1.04-3.49-1.04-5.49s.35-3.91,1.04-5.6c.69-1.69,1.64-3.13,2.83-4.32,1.2-1.19,2.6-2.12,4.2-2.77s3.31-.99,5.13-.99c1.08,0,2.13.13,3.16.39,1.03.26,2.01.63,2.93,1.11s1.79,1.07,2.59,1.77c.8.7,1.51,1.48,2.12,2.35l-12.35,14.89ZM718.36,691.46c-.31-.11-.61-.18-.9-.22-.3-.03-.61-.05-.93-.05-.9,0-1.75.17-2.54.49-.8.33-1.49.8-2.08,1.41-.59.61-1.05,1.35-1.39,2.21-.34.86-.51,1.83-.51,2.91,0,.24.01.52.04.82.02.31.06.62.12.93.06.31.13.62.21.9s.19.55.31.77l7.67-10.18Z"/>
      <path class="cls-1" d="M738.42,711.37h-6.59v-25.84h1.59l2.17,2.51c1.06-.96,2.26-1.71,3.61-2.23,1.34-.52,2.75-.78,4.21-.78,1.58,0,3.06.3,4.46.9,1.4.6,2.62,1.43,3.67,2.48,1.05,1.05,1.87,2.28,2.47,3.69.6,1.41.9,2.91.9,4.5v14.77h-6.59v-14.77c0-.68-.13-1.31-.39-1.92-.26-.6-.61-1.13-1.06-1.58-.45-.45-.97-.8-1.57-1.06-.59-.26-1.23-.39-1.9-.39s-1.34.13-1.95.39-1.14.61-1.59,1.06c-.45.45-.8.98-1.06,1.58-.26.6-.39,1.24-.39,1.92v14.77Z"/>
      <path class="cls-1" d="M773.4,711.37c-1.59,0-3.09-.3-4.49-.9-1.4-.6-2.63-1.43-3.68-2.48-1.06-1.05-1.88-2.28-2.49-3.68-.6-1.4-.9-2.89-.9-4.49v-7.67h-3.21v-6.56h3.21v-10.33h6.56v10.33h9.99v6.56h-9.99v7.67c0,.69.13,1.34.39,1.94.26.6.61,1.13,1.06,1.58.45.45.98.81,1.59,1.07.61.26,1.26.4,1.95.4h4.99v6.56h-4.99Z"/>
      <path class="cls-1" d="M808.24,698.22c0,1.93-.35,3.73-1.04,5.39-.69,1.66-1.63,3.1-2.82,4.32-1.19,1.21-2.59,2.17-4.19,2.87-1.6.7-3.32,1.05-5.15,1.05s-3.53-.35-5.13-1.05c-1.6-.7-3-1.66-4.2-2.87-1.2-1.21-2.14-2.65-2.83-4.32-.69-1.67-1.04-3.46-1.04-5.39s.35-3.78,1.04-5.45c.69-1.67,1.64-3.12,2.83-4.33,1.2-1.21,2.6-2.17,4.2-2.86,1.6-.69,3.31-1.04,5.13-1.04s3.55.33,5.15.98c1.6.65,2.99,1.58,4.19,2.77,1.19,1.2,2.13,2.64,2.82,4.32.69,1.68,1.04,3.55,1.04,5.61ZM801.61,698.22c0-1.06-.17-2.02-.52-2.88-.35-.86-.82-1.6-1.41-2.22-.6-.62-1.29-1.09-2.09-1.42-.8-.33-1.64-.49-2.55-.49s-1.75.17-2.54.49c-.8.33-1.49.8-2.08,1.42-.59.62-1.05,1.36-1.39,2.22s-.51,1.82-.51,2.88c0,1,.17,1.92.51,2.77s.8,1.59,1.39,2.22c.59.63,1.28,1.12,2.08,1.48.8.36,1.64.54,2.54.54s1.75-.17,2.55-.51c.8-.34,1.49-.81,2.09-1.42.59-.61,1.07-1.35,1.41-2.22.35-.87.52-1.82.52-2.87Z"/>
      <path class="cls-1" d="M827.26,711.37h-15.05v-6.56h15.05c.45,0,.84-.16,1.16-.48.32-.32.48-.71.48-1.16s-.16-.77-.48-.92c-.32-.15-.71-.22-1.16-.22h-6.85c-1.14,0-2.21-.22-3.21-.65s-1.87-1.03-2.61-1.77c-.74-.75-1.32-1.62-1.75-2.62-.43-1-.64-2.07-.64-3.21s.21-2.21.64-3.21c.43-1,1.01-1.87,1.75-2.61.74-.74,1.61-1.32,2.61-1.75,1-.43,2.07-.64,3.21-.64h13.34v6.56h-13.34c-.45,0-.84.16-1.16.48-.32.32-.48.71-.48,1.16s.16.86.48,1.19c.32.33.71.49,1.16.49h6.85c1.13,0,2.19.19,3.19.57,1,.38,1.87.9,2.61,1.58.74.68,1.33,1.49,1.76,2.44s.65,1.99.65,3.11-.22,2.21-.65,3.2-1.02,1.86-1.76,2.61c-.74.75-1.61,1.34-2.61,1.76-1,.43-2.06.64-3.19.64Z"/>
    </g>
    <g>
      <g>
        <path class="cls-1" d="M487.79,633.8l-18.45,68.13h-2.89l-18.45-68.13h-21.49l25.34,83.64h32.09l25.35-83.64h-21.5Z"/>
        <path class="cls-1" d="M244.54,717.45v-17.96h49.16c2.14,0,4-.77,5.52-2.3,1.52-1.52,2.3-3.38,2.3-5.52,0-3.33-1.85-4.66-2.95-5.15-1.38-.62-3.02-.94-4.86-.94h-23.38c-3.57,0-6.96-.69-10.07-2.04-3.13-1.36-5.89-3.24-8.2-5.58-2.32-2.34-4.17-5.12-5.51-8.24-1.33-3.11-2-6.5-2-10.08s.67-6.97,2-10.08c1.34-3.13,3.19-5.88,5.5-8.2s5.07-4.16,8.2-5.5c3.11-1.33,6.5-2,10.08-2h43.32v17.96h-43.32c-2.14,0-4,.77-5.52,2.3-1.52,1.52-2.3,3.38-2.3,5.52s.77,4.08,2.28,5.63c1.52,1.56,3.39,2.36,5.54,2.36h23.38c3.55,0,6.94.6,10.08,1.79,3.12,1.19,5.88,2.85,8.18,4.96,2.29,2.09,4.14,4.65,5.49,7.6,1.34,2.93,2.02,6.2,2.02,9.7s-.68,6.94-2.04,10.02c-1.37,3.11-3.24,5.88-5.56,8.22-2.31,2.34-5.07,4.2-8.19,5.53-3.11,1.33-6.47,2-10,2h-49.16Z"/>
      </g>
      <g>
        <path class="cls-1" d="M348.19,695.23l-8.01,7.6c-5.55-7.23-8.86-16.28-8.86-26.08,0-21.67,16.15-39.64,37.05-42.5v11.11c-14.82,2.75-26.08,15.78-26.08,31.39,0,6.88,2.19,13.26,5.9,18.48Z"/>
        <path class="cls-1" d="M392.42,715.7s-.49.2-.97.38l-.73.28c-5.16,2.17-10.75,3.29-16.51,3.29-9.86,0-18.95-3.35-26.2-8.96l8.07-7.67c5.15,3.57,11.4,5.66,18.13,5.66,2.4,0,4.76-.26,7.06-.79,1.59-.36,3.25.13,4.43,1.26l6.66,6.39.06.15Z"/>
        <path class="cls-1" d="M417.11,676.76c0,4.04-.56,8.04-1.68,11.89q-.09.33-2.55,6.5l-.05-.02-6.25-6.08c-1.26-1.22-1.8-3.03-1.35-4.73.66-2.47.85-4.95.9-7.56,0-15.81-11.56-28.98-26.68-31.49v-11.09c21.19,2.59,37.65,20.7,37.65,42.58Z"/>
        <path class="cls-1" d="M399.58,694.26c-2.67-2.59-3.7-6.48-2.54-10.01.78-2.36,1.2-4.88,1.2-7.49,0-11.45-8.05-21.05-18.78-23.45-1.69-.38-3.44-.58-5.24-.58-2.02,0-3.97.25-5.85.72-10.43,2.62-18.18,12.07-18.18,23.31,0,4.77,1.4,9.22,3.8,12.96,2.03,3.15,4.76,5.8,7.99,7.71,3.59,2.13,7.77,3.36,12.24,3.36,2.54,0,4.99-.4,7.29-1.13,3.39-1.08,7.11-.12,9.67,2.35l13.72,13.24h16.27l-21.58-20.98ZM374.21,689.81c-7.2,0-13.05-5.85-13.05-13.05s5.85-13.05,13.05-13.05,13.05,5.85,13.05,13.05-5.85,13.05-13.05,13.05Z"/>
      </g>
    </g>
  </g>
</svg>