<?xml version="1.0" encoding="UTF-8"?>
<svg id="Camada_1" data-name="Camada 1" xmlns="http://www.w3.org/2000/svg" viewBox="0 0 1080 1350">
  <defs>
    <style>
      .cls-1 {
        fill: #f2ba31;
      }
    </style>
  </defs>
  <path class="cls-1" d="M477.56,719.77l-17.83,16.93c-12.36-16.09-19.73-36.23-19.73-58.05,0-48.23,35.95-88.23,82.47-94.6v24.73c-32.99,6.13-58.05,35.13-58.05,69.86,0,15.31,4.87,29.52,13.14,41.13Z"/>
  <path class="cls-1" d="M576.03,765.33s-1.1.44-2.17.85l-1.62.63c-11.5,4.83-23.94,7.33-36.75,7.33-21.95,0-42.18-7.45-58.33-19.95l17.97-17.08c11.47,7.96,25.38,12.61,40.36,12.61,5.34,0,10.6-.59,15.72-1.75,3.54-.8,7.24.3,9.86,2.81l14.83,14.22.12.33Z"/>
  <path class="cls-1" d="M630.98,678.64c0,9-1.25,17.9-3.73,26.48q-.19.74-5.67,14.46l-.11-.05-13.92-13.53c-2.8-2.73-4-6.75-3-10.53,1.47-5.49,1.88-11.02,1.99-16.82,0-35.2-25.73-64.51-59.38-70.1v-24.68c47.16,5.78,83.82,46.08,83.82,94.78Z"/>
  <path class="cls-1" d="M591.96,717.61c-5.93-5.77-8.23-14.42-5.65-22.28,1.73-5.25,2.66-10.86,2.66-16.68,0-25.49-17.92-46.86-41.81-52.2-3.76-.85-7.67-1.29-11.67-1.29-4.49,0-8.85.56-13.02,1.61-23.22,5.83-40.47,26.87-40.47,51.88,0,10.62,3.11,20.52,8.46,28.85,4.51,7.01,10.6,12.91,17.78,17.16,7.98,4.75,17.3,7.48,27.24,7.48,5.65,0,11.1-.88,16.22-2.51,7.55-2.41,15.82-.27,21.53,5.23l30.54,29.47h36.22l-48.04-46.71ZM535.49,707.7c-16.02,0-29.05-13.03-29.05-29.05s13.03-29.05,29.05-29.05,29.05,13.03,29.05,29.05-13.03,29.05-29.05,29.05Z"/>
</svg>