<?xml version="1.0" encoding="UTF-8"?>
<svg id="Camada_1" data-name="Camada 1" xmlns="http://www.w3.org/2000/svg" viewBox="0 0 1080 1350">
  <defs>
    <style>
      .cls-1 {
        fill: #fff;
      }
    </style>
  </defs>
  <g>
    <path class="cls-1" d="M665.64,626.36l-20.91,77.2h-3.27l-20.91-77.2h-24.35l28.72,94.78h36.36l28.72-94.78h-24.36Z"/>
    <path class="cls-1" d="M390,721.14v-20.35h55.71c2.42,0,4.53-.88,6.26-2.6,1.73-1.73,2.6-3.83,2.6-6.26,0-3.77-2.1-5.28-3.35-5.84-1.57-.7-3.42-1.06-5.51-1.06h-26.5c-4.05,0-7.89-.78-11.41-2.31-3.55-1.54-6.67-3.67-9.29-6.32-2.63-2.66-4.73-5.8-6.24-9.34-1.51-3.52-2.27-7.37-2.27-11.42s.76-7.9,2.27-11.42c1.51-3.54,3.61-6.67,6.23-9.29,2.62-2.62,5.74-4.72,9.29-6.23,3.53-1.51,7.37-2.27,11.42-2.27h49.08v20.35h-49.08c-2.42,0-4.53.88-6.26,2.6-1.73,1.73-2.6,3.83-2.6,6.26s.87,4.62,2.58,6.38c1.73,1.77,3.84,2.67,6.28,2.67h26.5c4.03,0,7.87.68,11.43,2.03,3.54,1.34,6.66,3.23,9.27,5.62,2.6,2.37,4.69,5.27,6.22,8.61,1.52,3.32,2.29,7.02,2.29,10.99s-.78,7.86-2.31,11.35c-1.55,3.52-3.67,6.66-6.3,9.32-2.62,2.65-5.74,4.76-9.28,6.27-3.52,1.51-7.34,2.27-11.33,2.27h-55.71Z"/>
  </g>
  <g>
    <path class="cls-1" d="M507.45,695.97l-9.08,8.62c-6.29-8.19-10.04-18.44-10.04-29.55,0-24.55,18.3-44.91,41.98-48.15v12.59c-16.79,3.12-29.55,17.88-29.55,35.56,0,7.79,2.48,15.03,6.69,20.94Z"/>
    <path class="cls-1" d="M557.57,719.16s-.56.22-1.1.43l-.82.32c-5.85,2.46-12.19,3.73-18.71,3.73-11.17,0-21.47-3.79-29.69-10.15l9.15-8.69c5.84,4.05,12.92,6.42,20.54,6.42,2.72,0,5.39-.3,8-.89,1.8-.41,3.69.15,5.02,1.43l7.55,7.24.06.17Z"/>
    <path class="cls-1" d="M585.54,675.03c0,4.58-.64,9.11-1.9,13.48q-.1.38-2.88,7.36l-.06-.03-7.09-6.89c-1.43-1.39-2.04-3.44-1.53-5.36.75-2.8.96-5.61,1.02-8.56,0-17.92-13.1-32.84-30.23-35.68v-12.56c24.01,2.94,42.67,23.46,42.67,48.25Z"/>
    <path class="cls-1" d="M565.68,694.87c-3.02-2.94-4.19-7.34-2.87-11.34.88-2.67,1.35-5.53,1.35-8.49,0-12.97-9.12-23.85-21.28-26.57-1.91-.43-3.9-.66-5.94-.66-2.28,0-4.5.29-6.63.82-11.82,2.97-20.6,13.68-20.6,26.41,0,5.4,1.59,10.45,4.31,14.69,2.3,3.57,5.4,6.57,9.05,8.74,4.06,2.42,8.81,3.81,13.87,3.81,2.87,0,5.65-.45,8.26-1.28,3.84-1.23,8.05-.14,10.96,2.66l15.55,15h18.44l-24.46-23.78ZM536.93,689.82c-8.16,0-14.79-6.63-14.79-14.79s6.63-14.79,14.79-14.79,14.79,6.63,14.79,14.79-6.63,14.79-14.79,14.79Z"/>
  </g>
</svg>