<?xml version="1.0" encoding="UTF-8"?>
<svg id="Camada_1" data-name="Camada 1" xmlns="http://www.w3.org/2000/svg" viewBox="0 0 1080 1350">
  <defs>
    <style>
      .cls-1 {
        fill: #f27910;
      }
    </style>
  </defs>
  <g>
    <path class="cls-1" d="M556.02,651.61l-4.2,4.22c-.21-.59-.5-1.12-.86-1.58-.36-.47-.77-.86-1.23-1.19-.45-.32-.95-.57-1.48-.73-.53-.17-1.08-.25-1.64-.25-.78,0-1.52.16-2.21.48-.69.32-1.29.77-1.81,1.35-.51.58-.91,1.27-1.21,2.07s-.44,1.68-.44,2.64c0,.78.15,1.52.44,2.2s.7,1.29,1.21,1.8c.51.52,1.11.92,1.81,1.22.69.29,1.43.44,2.21.44.56,0,1.1-.08,1.61-.23.52-.15,1-.37,1.46-.66.45-.29.86-.64,1.22-1.05.36-.41.65-.87.87-1.37l4.2,4.22c-.53.76-1.14,1.43-1.84,2.04-.69.6-1.44,1.11-2.24,1.53-.81.42-1.65.74-2.54.95-.89.22-1.8.32-2.74.32-1.58,0-3.07-.3-4.46-.89-1.39-.59-2.61-1.41-3.65-2.44-1.04-1.03-1.86-2.24-2.46-3.63-.6-1.38-.9-2.87-.9-4.45,0-1.72.3-3.33.9-4.83s1.42-2.8,2.46-3.91,2.26-1.99,3.65-2.63c1.39-.64,2.88-.96,4.46-.96.94,0,1.86.12,2.76.36.9.24,1.76.58,2.58,1.04.82.45,1.57,1.01,2.27,1.67.69.66,1.29,1.41,1.79,2.27Z"/>
    <path class="cls-1" d="M581.22,658.17c0,1.68-.3,3.24-.9,4.69s-1.42,2.7-2.46,3.76c-1.04,1.06-2.25,1.89-3.64,2.5-1.39.61-2.88.91-4.48.91s-3.07-.3-4.46-.91c-1.39-.61-2.61-1.44-3.65-2.5-1.04-1.06-1.86-2.31-2.46-3.76s-.9-3.01-.9-4.69.3-3.29.9-4.74,1.42-2.71,2.46-3.77c1.04-1.06,2.26-1.88,3.65-2.49,1.39-.6,2.88-.9,4.46-.9s3.09.28,4.48.85c1.39.57,2.6,1.37,3.64,2.41s1.85,2.29,2.46,3.76.9,3.09.9,4.88ZM575.45,658.17c0-.92-.15-1.76-.45-2.51-.3-.75-.71-1.39-1.23-1.93-.52-.54-1.12-.95-1.82-1.24-.69-.29-1.43-.43-2.21-.43s-1.52.14-2.21.43c-.69.29-1.29.7-1.81,1.24-.51.54-.91,1.18-1.21,1.93-.29.75-.44,1.58-.44,2.51,0,.87.15,1.67.44,2.41.29.74.7,1.39,1.21,1.93.51.55,1.11.98,1.81,1.29.69.31,1.43.47,2.21.47s1.52-.15,2.21-.44c.69-.29,1.3-.71,1.82-1.24s.93-1.18,1.23-1.93.45-1.59.45-2.5Z"/>
    <path class="cls-1" d="M591.15,669.61h-5.73v-22.47h1.38l1.89,2.18c.92-.84,1.97-1.49,3.14-1.94,1.17-.45,2.39-.68,3.66-.68,1.37,0,2.66.26,3.88.79,1.22.52,2.28,1.24,3.19,2.16.91.92,1.63,1.99,2.15,3.21.53,1.22.79,2.53.79,3.91v12.84h-5.73v-12.84c0-.59-.11-1.14-.34-1.67-.22-.52-.53-.98-.92-1.37-.39-.39-.85-.7-1.36-.92s-1.07-.34-1.66-.34-1.17.11-1.7.34c-.53.22-.99.53-1.39.92-.39.39-.7.85-.92,1.37-.22.52-.34,1.08-.34,1.67v12.84Z"/>
    <path class="cls-1" d="M622.94,669.61h-13.09v-5.71h13.09c.39,0,.73-.14,1.01-.42.28-.28.42-.62.42-1.01s-.14-.67-.42-.8c-.28-.13-.62-.19-1.01-.19h-5.96c-.99,0-1.92-.19-2.79-.57-.87-.38-1.62-.89-2.27-1.54-.64-.65-1.15-1.41-1.52-2.28-.37-.87-.56-1.8-.56-2.79s.19-1.92.56-2.79c.37-.87.88-1.62,1.52-2.27.64-.64,1.4-1.15,2.27-1.52.87-.37,1.8-.56,2.79-.56h11.6v5.71h-11.6c-.39,0-.73.14-1.01.42s-.42.62-.42,1.01.14.75.42,1.04.61.43,1.01.43h5.96c.98,0,1.9.16,2.77.49s1.62.79,2.27,1.37c.64.59,1.15,1.29,1.53,2.12.38.82.57,1.73.57,2.71s-.19,1.92-.57,2.78c-.38.86-.89,1.62-1.53,2.27-.64.65-1.4,1.16-2.27,1.53s-1.79.56-2.77.56Z"/>
    <path class="cls-1" d="M650.66,666.99c-.46.42-.95.82-1.48,1.19-.52.37-1.07.69-1.65.97-.57.27-1.16.49-1.77.65-.61.16-1.23.24-1.86.24-1.38,0-2.69-.25-3.9-.73-1.22-.49-2.28-1.19-3.2-2.09-.92-.9-1.64-2-2.16-3.29-.53-1.29-.79-2.74-.79-4.35v-12.42h5.71v12.42c0,.76.11,1.43.35,2.02.23.59.54,1.09.93,1.5.39.41.85.71,1.37.92.53.21,1.09.31,1.69.31s1.14-.14,1.67-.41c.52-.27.98-.63,1.37-1.08.39-.45.7-.95.92-1.52s.34-1.15.34-1.75v-12.42h5.73v22.47h-1.38l-1.89-2.62Z"/>
    <path class="cls-1" d="M665.09,669.61h-5.77v-31.41h5.77v31.41Z"/>
    <path class="cls-1" d="M681.75,669.61c-1.38,0-2.69-.26-3.9-.79-1.22-.52-2.28-1.24-3.2-2.16-.92-.92-1.64-1.98-2.16-3.2-.52-1.22-.79-2.52-.79-3.9v-6.67h-2.79v-5.71h2.79v-8.98h5.71v8.98h8.69v5.71h-8.69v6.67c0,.6.11,1.16.34,1.69.22.52.53.98.92,1.37.39.39.85.7,1.38.93.53.23,1.1.35,1.7.35h4.34v5.71h-4.34Z"/>
    <path class="cls-1" d="M712.05,658.17c0,1.68-.3,3.24-.9,4.69s-1.42,2.7-2.46,3.76c-1.04,1.06-2.25,1.89-3.64,2.5-1.39.61-2.88.91-4.48.91s-3.07-.3-4.46-.91c-1.39-.61-2.61-1.44-3.65-2.5-1.04-1.06-1.86-2.31-2.46-3.76s-.9-3.01-.9-4.69.3-3.29.9-4.74,1.42-2.71,2.46-3.77c1.04-1.06,2.26-1.88,3.65-2.49,1.39-.6,2.88-.9,4.46-.9s3.09.28,4.48.85c1.39.57,2.6,1.37,3.64,2.41s1.85,2.29,2.46,3.76.9,3.09.9,4.88ZM706.28,658.17c0-.92-.15-1.76-.45-2.51-.3-.75-.71-1.39-1.23-1.93-.52-.54-1.12-.95-1.82-1.24-.69-.29-1.43-.43-2.21-.43s-1.52.14-2.21.43c-.69.29-1.29.7-1.81,1.24-.51.54-.91,1.18-1.21,1.93-.29.75-.44,1.58-.44,2.51,0,.87.15,1.67.44,2.41.29.74.7,1.39,1.21,1.93.51.55,1.11.98,1.81,1.29.69.31,1.43.47,2.21.47s1.52-.15,2.21-.44c.69-.29,1.3-.71,1.82-1.24s.93-1.18,1.23-1.93.45-1.59.45-2.5Z"/>
    <path class="cls-1" d="M721.98,669.61h-5.73v-22.47h1.38l1.89,2.66c.92-.84,1.97-1.49,3.15-1.94,1.18-.45,2.39-.68,3.65-.68h5.06v5.71h-5.06c-.6,0-1.17.11-1.7.34-.53.22-.99.53-1.39.92-.39.39-.7.85-.92,1.38-.22.53-.34,1.1-.34,1.7v12.38Z"/>
    <path class="cls-1" d="M741.83,641.03c0,.53-.1,1.03-.3,1.49-.2.46-.48.86-.83,1.21-.35.34-.76.62-1.23.82s-.97.3-1.5.3-1.03-.1-1.5-.3-.87-.48-1.22-.82c-.34-.34-.62-.74-.82-1.21-.2-.46-.31-.96-.31-1.49s.1-1.01.31-1.48c.2-.47.47-.87.82-1.22.34-.34.75-.62,1.22-.82s.97-.3,1.5-.3,1.03.1,1.5.3.88.48,1.23.82c.35.34.63.75.83,1.22.2.47.3.96.3,1.48ZM740.84,669.61h-5.77v-22.47h5.77v22.47Z"/>
    <path class="cls-1" d="M767.99,669.61h-1.38l-2.22-3.08c-.55.49-1.12.95-1.73,1.37-.61.43-1.25.8-1.92,1.11-.67.32-1.36.56-2.07.75-.71.18-1.42.27-2.15.27-1.58,0-3.07-.27-4.46-.8-1.39-.53-2.61-1.3-3.65-2.32-1.04-1.01-1.86-2.26-2.46-3.72-.6-1.47-.9-3.14-.9-5.01,0-1.75.3-3.35.9-4.81.6-1.46,1.42-2.72,2.46-3.77,1.04-1.05,2.26-1.86,3.65-2.44,1.39-.58,2.88-.87,4.46-.87.73,0,1.45.09,2.16.27s1.41.43,2.08.76c.67.32,1.31.7,1.92,1.13.61.43,1.18.9,1.71,1.41l2.22-2.66h1.38v22.43ZM762.22,658.17c0-.78-.15-1.54-.45-2.28s-.71-1.38-1.23-1.95c-.52-.57-1.12-1.02-1.82-1.36s-1.43-.51-2.21-.51-1.52.13-2.21.4c-.69.27-1.29.66-1.8,1.18-.51.52-.91,1.16-1.21,1.92s-.44,1.63-.44,2.61.15,1.85.44,2.61c.29.76.69,1.4,1.21,1.92.51.52,1.11.91,1.8,1.18s1.43.4,2.21.4,1.52-.17,2.21-.51c.69-.34,1.3-.8,1.82-1.36.52-.57.93-1.22,1.23-1.95s.45-1.49.45-2.28Z"/>
    <path class="cls-1" d="M557.46,705.77h-1.35l-2.16-3c-.53.48-1.09.92-1.69,1.34-.59.42-1.21.78-1.87,1.08-.65.31-1.32.55-2.01.72-.69.18-1.39.27-2.09.27-1.54,0-2.98-.29-4.34-.87-1.35-.58-2.54-1.38-3.55-2.41-1.01-1.03-1.81-2.25-2.4-3.65-.59-1.41-.88-2.94-.88-4.6s.29-3.18.88-4.59c.58-1.42,1.38-2.64,2.4-3.67,1.01-1.03,2.2-1.84,3.55-2.43,1.35-.58,2.8-.88,4.34-.88.49,0,1,.04,1.52.12.52.08,1.03.21,1.53.4.5.18.96.43,1.4.72.44.3.8.67,1.1,1.1v-10.21h5.61v30.56ZM551.84,694.65c0-.76-.15-1.5-.44-2.21s-.69-1.35-1.19-1.9c-.5-.55-1.09-.99-1.77-1.33-.67-.33-1.39-.5-2.15-.5s-1.48.14-2.15.41c-.67.27-1.26.66-1.76,1.17-.5.51-.89,1.13-1.17,1.87-.29.73-.43,1.57-.43,2.49,0,.8.14,1.57.43,2.29.29.72.68,1.35,1.17,1.9.5.54,1.08.97,1.76,1.29s1.39.47,2.15.47,1.48-.17,2.15-.5,1.26-.78,1.77-1.33c.5-.55.9-1.18,1.19-1.9.29-.71.44-1.45.44-2.21Z"/>
    <path class="cls-1" d="M570.6,700.33c.21.1.42.17.63.22.21.05.43.09.64.12.54.07,1.07.07,1.59,0,.52-.08,1.02-.23,1.49-.44.48-.21.91-.5,1.31-.85.4-.35.74-.75,1.02-1.21l3.48,4.63c-.61.66-1.29,1.23-2.04,1.72-.75.49-1.54.88-2.37,1.18s-1.69.49-2.58.58c-.89.09-1.78.07-2.68-.05-1.52-.21-2.92-.69-4.18-1.45s-2.33-1.7-3.19-2.86c-.86-1.15-1.49-2.46-1.87-3.94-.39-1.48-.46-3.05-.23-4.72.24-1.71.75-3.23,1.52-4.57.78-1.33,1.74-2.43,2.88-3.29,1.14-.86,2.42-1.47,3.84-1.84s2.89-.44,4.41-.23c.9.13,1.77.36,2.6.69.83.34,1.61.76,2.33,1.27s1.37,1.11,1.97,1.79c.59.68,1.09,1.42,1.5,2.22l-12.09,11.03ZM575.02,689.34c-.24-.13-.49-.23-.73-.29-.25-.06-.5-.11-.77-.15-.76-.11-1.49-.07-2.19.12-.71.18-1.34.5-1.9.94-.56.44-1.04,1.01-1.42,1.69-.38.68-.64,1.47-.76,2.38-.03.2-.05.43-.06.69-.02.26-.02.52,0,.79.01.27.03.53.07.78s.09.48.17.68l7.62-7.64Z"/>
    <path class="cls-1" d="M619.52,705.77h-1.35l-2.16-3c-.53.48-1.09.92-1.68,1.34-.59.42-1.21.78-1.87,1.08-.65.31-1.32.55-2.01.72-.69.18-1.38.27-2.09.27-1.54,0-2.98-.26-4.34-.78s-2.54-1.27-3.55-2.26c-1.01-.99-1.81-2.19-2.4-3.62-.59-1.43-.88-3.06-.88-4.88,0-1.7.29-3.26.88-4.68.58-1.42,1.38-2.64,2.4-3.66,1.01-1.02,2.2-1.81,3.55-2.38,1.35-.56,2.8-.85,4.34-.85.71,0,1.41.09,2.1.27.69.18,1.37.42,2.02.73.65.31,1.28.68,1.87,1.1s1.15.88,1.66,1.37l2.16-2.59h1.35v21.82ZM613.91,694.65c0-.76-.15-1.5-.44-2.21s-.69-1.35-1.19-1.9c-.5-.55-1.09-.99-1.77-1.33-.67-.33-1.39-.5-2.15-.5s-1.48.13-2.15.39c-.67.26-1.26.64-1.76,1.14-.5.5-.89,1.13-1.17,1.87-.29.74-.43,1.59-.43,2.54s.14,1.8.43,2.54c.29.74.68,1.36,1.17,1.87.5.5,1.08.88,1.76,1.14.67.26,1.39.39,2.15.39s1.48-.17,2.15-.5,1.26-.78,1.77-1.33c.5-.55.9-1.18,1.19-1.9.29-.71.44-1.45.44-2.21Z"/>
    <path class="cls-1" d="M630.38,705.77h-5.61v-30.56h5.61v30.56Z"/>
    <path class="cls-1" d="M642.21,677.97c0,.52-.1,1-.3,1.45-.2.45-.47.84-.81,1.17-.34.33-.74.6-1.19.8-.46.2-.94.3-1.46.3s-1-.1-1.46-.3c-.46-.2-.85-.46-1.18-.8-.33-.33-.6-.72-.8-1.17s-.3-.93-.3-1.45.1-.98.3-1.44c.2-.46.46-.85.8-1.18.33-.33.73-.6,1.18-.8.46-.2.94-.3,1.46-.3s1,.1,1.46.3c.45.2.85.46,1.19.8.34.33.61.73.81,1.18.2.46.3.94.3,1.44ZM641.25,705.77h-5.61v-21.86h5.61v21.86Z"/>
    <path class="cls-1" d="M674.3,705.77h-5.55v-13.88c0-.38-.07-.74-.21-1.08-.14-.34-.34-.64-.6-.9-.26-.26-.56-.46-.9-.6-.34-.14-.7-.21-1.08-.21s-.74.07-1.07.21c-.33.14-.63.34-.88.6-.25.26-.45.56-.59.9-.14.34-.21.7-.21,1.08v13.88h-5.57v-13.88c0-.38-.07-.74-.21-1.08-.14-.34-.34-.64-.6-.9-.26-.26-.56-.46-.9-.6-.34-.14-.7-.21-1.08-.21s-.74.07-1.07.21c-.33.14-.63.34-.88.6-.25.26-.45.56-.59.9-.14.34-.21.7-.21,1.08v13.88h-5.57v-21.86h1.35l1.51,1.67c.78-.65,1.63-1.16,2.56-1.52s1.9-.54,2.91-.54,2.02.19,2.99.57c.97.38,1.83,1.04,2.56,1.98.34-.46.73-.86,1.16-1.18.44-.33.89-.59,1.38-.8s.98-.35,1.5-.44,1.03-.13,1.53-.13c1.16,0,2.24.22,3.26.65s1.9,1.03,2.65,1.79c.76.76,1.35,1.64,1.79,2.66.44,1.02.65,2.11.65,3.27v13.88Z"/>
    <path class="cls-1" d="M688.06,700.42c.22.07.44.11.65.13.22.02.44.03.65.03.54,0,1.07-.07,1.57-.22.5-.15.98-.36,1.42-.64.44-.28.84-.62,1.18-1.02.35-.4.63-.85.85-1.34l4.08,4.1c-.52.74-1.11,1.4-1.79,1.98-.67.59-1.4,1.08-2.18,1.49s-1.61.72-2.47.93c-.86.21-1.75.32-2.66.32-1.54,0-2.98-.29-4.34-.86s-2.54-1.37-3.55-2.39c-1.01-1.02-1.81-2.23-2.4-3.64-.59-1.41-.88-2.96-.88-4.64s.29-3.31.88-4.74c.58-1.43,1.38-2.65,2.4-3.65,1.01-1.01,2.2-1.79,3.55-2.35s2.8-.84,4.34-.84c.91,0,1.8.11,2.67.33.87.22,1.7.53,2.48.94s1.51.91,2.2,1.5c.68.59,1.28,1.26,1.8,1.99l-10.45,12.6ZM690.92,688.93c-.26-.09-.51-.16-.76-.18-.25-.03-.51-.04-.79-.04-.76,0-1.48.14-2.15.42-.67.28-1.26.68-1.76,1.19-.5.52-.89,1.14-1.17,1.87-.29.73-.43,1.55-.43,2.46,0,.2,0,.44.03.69.02.26.05.52.1.79.05.27.11.52.17.77s.16.46.27.65l6.49-8.61Z"/>
    <path class="cls-1" d="M707.89,705.77h-5.57v-21.86h1.35l1.84,2.12c.9-.82,1.92-1.45,3.05-1.89,1.14-.44,2.32-.66,3.56-.66,1.33,0,2.59.25,3.78.77,1.18.51,2.22,1.21,3.1,2.1.88.89,1.58,1.93,2.09,3.12.51,1.19.77,2.46.77,3.81v12.49h-5.57v-12.49c0-.57-.11-1.11-.33-1.62-.22-.51-.52-.96-.9-1.34-.38-.38-.82-.68-1.33-.9-.5-.22-1.04-.33-1.61-.33s-1.14.11-1.65.33-.97.52-1.35.9c-.38.38-.68.83-.9,1.34-.22.51-.33,1.05-.33,1.62v12.49Z"/>
    <path class="cls-1" d="M737.49,705.77c-1.35,0-2.61-.25-3.8-.77-1.18-.51-2.22-1.21-3.11-2.1-.89-.89-1.59-1.93-2.1-3.11-.51-1.18-.77-2.45-.77-3.8v-6.49h-2.71v-5.55h2.71v-8.74h5.55v8.74h8.45v5.55h-8.45v6.49c0,.58.11,1.13.33,1.64.22.51.52.96.9,1.34.38.38.83.68,1.35.91.52.22,1.07.34,1.65.34h4.23v5.55h-4.23Z"/>
    <path class="cls-1" d="M766.97,694.65c0,1.63-.29,3.15-.88,4.56-.59,1.41-1.38,2.63-2.39,3.65-1.01,1.03-2.19,1.84-3.54,2.43-1.35.59-2.81.89-4.36.89s-2.98-.3-4.34-.89c-1.35-.59-2.54-1.4-3.55-2.43-1.01-1.03-1.81-2.25-2.4-3.65-.59-1.41-.88-2.93-.88-4.56s.29-3.2.88-4.61c.58-1.42,1.38-2.64,2.4-3.66,1.01-1.03,2.2-1.83,3.55-2.42,1.35-.58,2.8-.88,4.34-.88s3,.28,4.36.83c1.35.55,2.53,1.33,3.54,2.35,1.01,1.01,1.8,2.23,2.39,3.65.58,1.42.88,3,.88,4.75ZM761.36,694.65c0-.9-.15-1.71-.44-2.44s-.69-1.35-1.19-1.88c-.5-.52-1.09-.93-1.77-1.2s-1.39-.42-2.15-.42-1.48.14-2.15.42-1.26.68-1.76,1.2c-.5.52-.89,1.15-1.17,1.88s-.43,1.54-.43,2.44c0,.84.14,1.63.43,2.35s.68,1.35,1.17,1.88c.5.53,1.08.95,1.76,1.26.67.31,1.39.46,2.15.46s1.48-.14,2.15-.43c.67-.29,1.26-.69,1.77-1.2.5-.52.9-1.14,1.19-1.88.29-.73.44-1.54.44-2.43Z"/>
    <path class="cls-1" d="M783.06,705.77h-12.74v-5.55h12.74c.38,0,.71-.14.98-.41.27-.27.41-.6.41-.98s-.14-.65-.41-.78c-.27-.12-.6-.18-.98-.18h-5.8c-.97,0-1.87-.18-2.71-.55s-1.58-.87-2.21-1.5-1.12-1.37-1.48-2.21c-.36-.84-.54-1.75-.54-2.71s.18-1.87.54-2.71c.36-.84.85-1.58,1.48-2.21.63-.63,1.36-1.12,2.21-1.48.84-.36,1.75-.54,2.71-.54h11.29v5.55h-11.29c-.38,0-.71.14-.98.41-.27.27-.41.6-.41.98s.14.73.41,1.01c.27.28.6.42.98.42h5.8c.95,0,1.85.16,2.7.48.84.32,1.58.77,2.21,1.34.63.57,1.12,1.26,1.49,2.06s.55,1.68.55,2.63-.18,1.87-.55,2.71-.86,1.57-1.49,2.2-1.36,1.13-2.21,1.49c-.84.36-1.74.54-2.7.54Z"/>
  </g>
  <g>
    <g>
      <path class="cls-1" d="M495.83,640.14l-15.61,57.65h-2.44l-15.61-57.65h-18.19l21.44,70.77h27.15l21.45-70.77h-18.19Z"/>
      <path class="cls-1" d="M290,710.92v-15.2h41.6c1.81,0,3.38-.65,4.67-1.94,1.29-1.29,1.94-2.86,1.94-4.67,0-2.81-1.57-3.94-2.5-4.36-1.17-.53-2.55-.79-4.12-.79h-19.79c-3.02,0-5.89-.58-8.52-1.73-2.65-1.15-4.98-2.74-6.94-4.72-1.96-1.98-3.53-4.33-4.66-6.98-1.12-2.63-1.7-5.5-1.7-8.53s.57-5.9,1.7-8.53c1.13-2.64,2.7-4.98,4.65-6.94,1.96-1.96,4.29-3.52,6.94-4.65,2.63-1.12,5.5-1.7,8.53-1.7h36.65v15.2h-36.65c-1.81,0-3.38.65-4.67,1.94-1.29,1.29-1.94,2.86-1.94,4.67s.65,3.45,1.93,4.76c1.29,1.32,2.87,1.99,4.69,1.99h19.79c3.01,0,5.88.51,8.53,1.52,2.64,1,4.97,2.41,6.92,4.2,1.94,1.77,3.5,3.93,4.65,6.43,1.13,2.48,1.71,5.24,1.71,8.21s-.58,5.87-1.72,8.48c-1.16,2.63-2.74,4.97-4.7,6.96-1.96,1.98-4.29,3.55-6.93,4.68-2.63,1.12-5.48,1.7-8.46,1.7h-41.6Z"/>
    </g>
    <g>
      <path class="cls-1" d="M377.7,692.12l-6.78,6.43c-4.7-6.12-7.5-13.77-7.5-22.07,0-18.33,13.67-33.54,31.35-35.96v9.4c-12.54,2.33-22.07,13.35-22.07,26.56,0,5.82,1.85,11.22,5,15.63Z"/>
      <path class="cls-1" d="M415.13,709.44s-.42.17-.82.32l-.62.24c-4.37,1.84-9.1,2.78-13.97,2.78-8.34,0-16.03-2.83-22.17-7.58l6.83-6.49c4.36,3.02,9.65,4.79,15.34,4.79,2.03,0,4.03-.22,5.97-.67,1.35-.31,2.75.11,3.75,1.07l5.64,5.41.05.13Z"/>
      <path class="cls-1" d="M436.02,676.49c0,3.42-.47,6.8-1.42,10.06q-.07.28-2.15,5.5l-.04-.02-5.29-5.14c-1.07-1.04-1.52-2.57-1.14-4,.56-2.09.72-4.19.76-6.39,0-13.38-9.78-24.52-22.57-26.65v-9.38c17.93,2.2,31.86,17.52,31.86,36.03Z"/>
      <path class="cls-1" d="M421.18,691.3c-2.26-2.19-3.13-5.48-2.15-8.47.66-2,1.01-4.13,1.01-6.34,0-9.69-6.81-17.81-15.89-19.84-1.43-.32-2.91-.49-4.44-.49-1.71,0-3.36.21-4.95.61-8.83,2.22-15.38,10.21-15.38,19.72,0,4.04,1.18,7.8,3.22,10.97,1.72,2.66,4.03,4.91,6.76,6.52,3.03,1.8,6.58,2.84,10.36,2.84,2.15,0,4.22-.33,6.16-.96,2.87-.92,6.01-.1,8.18,1.99l11.61,11.2h13.77l-18.26-17.75ZM399.72,687.53c-6.09,0-11.04-4.95-11.04-11.04s4.95-11.04,11.04-11.04,11.04,4.95,11.04,11.04-4.95,11.04-11.04,11.04Z"/>
    </g>
  </g>
</svg>