<?xml version="1.0" encoding="UTF-8"?>
<svg id="Camada_1" data-name="Camada 1" xmlns="http://www.w3.org/2000/svg" viewBox="0 0 1080 1350">
  <defs>
    <style>
      .cls-1, .cls-2 {
        fill: #f27910;
      }

      .cls-3 {
        fill: #f2ba31;
      }

      .cls-2 {
        font-family: Righteous-Regular, Righteous;
        font-size: 52.24px;
      }
    </style>
  </defs>
  <rect class="cls-3" x="-135" y="137.26" width="1350" height="1080" transform="translate(-137.26 1217.26) rotate(-90)"/>
  <g>
    <text class="cls-2" transform="translate(539.33 525.46) rotate(5.79)"><tspan x="0" y="0">S</tspan></text>
    <text class="cls-2" transform="translate(571.9 528.65) rotate(18.98)"><tspan x="0" y="0">A</tspan></text>
    <text class="cls-2" transform="translate(605.17 540.32) rotate(31.81)"><tspan x="0" y="0">V</tspan></text>
    <text class="cls-2" transform="translate(631.68 557.55) rotate(40.67)"><tspan x="0" y="0">:</tspan></text>
    <text class="cls-2" transform="translate(643.9 568.16) rotate(46.88)"><tspan x="0" y="0"> </tspan></text>
    <text class="cls-2" transform="translate(655.26 579.28) rotate(56.55)"><tspan x="0" y="0">C</tspan></text>
    <text class="cls-2" transform="translate(673.96 606.67) rotate(70.68)"><tspan x="0" y="0">O</tspan></text>
    <text class="cls-2" transform="translate(687.24 645.7) rotate(85.7)"><tspan x="0" y="0">N</tspan></text>
    <text class="cls-2" transform="translate(689.69 682.42) rotate(98.93)"><tspan x="0" y="0">S</tspan></text>
    <text class="cls-2" transform="translate(684.72 714.77) rotate(112.22)"><tspan x="0" y="0">U</tspan></text>
    <text class="cls-2" transform="translate(670.7 747.98) rotate(124.99)"><tspan x="0" y="0">L</tspan></text>
    <text class="cls-2" transform="translate(656.31 769.17) rotate(134.92)"><tspan x="0" y="0">T</tspan></text>
    <text class="cls-2" transform="translate(635.65 790.82) rotate(148.3)"><tspan x="0" y="0">O</tspan></text>
    <text class="cls-2" transform="translate(600.29 812.09) rotate(162.89)"><tspan x="0" y="0">R</tspan></text>
    <text class="cls-2" transform="translate(566.34 821.55) rotate(172.64)"><tspan x="0" y="0">I</tspan></text>
    <text class="cls-2" transform="translate(551.21 824.31) rotate(-177.58)"><tspan x="0" y="0">A</tspan></text>
    <text class="cls-2" transform="translate(514.91 821.78) rotate(-167.59)"><tspan x="0" y="0"> </tspan></text>
    <text class="cls-2" transform="translate(499.25 819.09) rotate(-157.71)"><tspan x="0" y="0">D</tspan></text>
    <text class="cls-2" transform="translate(466.99 805.53) rotate(-145.04)"><tspan x="0" y="0">E</tspan></text>
    <text class="cls-2" transform="translate(441.59 786.9) rotate(-135.97)"><tspan x="0" y="0"> </tspan></text>
    <text class="cls-2" transform="translate(429.63 776.44) rotate(-125.99)"><tspan x="0" y="0">A</tspan></text>
    <text class="cls-2" transform="translate(408.78 747.05) rotate(-113.23)"><tspan x="0" y="0">L</tspan></text>
    <text class="cls-2" transform="translate(397.31 718.57) rotate(-104.28)"><tspan x="0" y="0">I</tspan></text>
    <text class="cls-2" transform="translate(392.27 704.12) rotate(-92.92)"><tspan x="0" y="0">M</tspan></text>
    <text class="cls-2" transform="translate(390.89 660.7) rotate(-78.74)"><tspan x="0" y="0">E</tspan></text>
    <text class="cls-2" transform="translate(396.71 630.2) rotate(-65.6)"><tspan x="0" y="0">N</tspan></text>
    <text class="cls-2" transform="translate(412.32 596.82) rotate(-52.56)"><tspan x="0" y="0">T</tspan></text>
    <text class="cls-2" transform="translate(429.99 572.67) rotate(-39.19)"><tspan x="0" y="0">O</tspan></text>
    <text class="cls-2" transform="translate(462.36 547.05) rotate(-25.06)"><tspan x="0" y="0">S</tspan></text>
    <g>
      <path class="cls-1" d="M477.15,710.93l-19.25,18.28c-13.34-17.37-21.3-39.11-21.3-62.67,0-52.07,38.82-95.26,89.04-102.13v26.7c-35.62,6.62-62.67,37.93-62.67,75.43,0,16.53,5.26,31.87,14.19,44.4Z"/>
      <path class="cls-1" d="M583.45,760.11s-1.18.47-2.34.92l-1.75.68c-12.41,5.21-25.84,7.91-39.68,7.91-23.7,0-45.54-8.04-62.97-21.53l19.4-18.44c12.38,8.59,27.4,13.61,43.57,13.61,5.77,0,11.44-.64,16.97-1.89,3.82-.87,7.82.32,10.65,3.04l16.02,15.36.13.36Z"/>
      <path class="cls-1" d="M642.78,666.53c0,9.72-1.35,19.33-4.03,28.58q-.21.8-6.12,15.61l-.12-.06-15.03-14.6c-3.03-2.94-4.32-7.29-3.23-11.37,1.58-5.93,2.03-11.89,2.15-18.16,0-38-27.78-69.65-64.11-75.68v-26.64c50.92,6.23,90.49,49.75,90.49,102.32Z"/>
      <path class="cls-1" d="M600.65,708.59c-6.4-6.23-8.89-15.57-6.1-24.05,1.87-5.67,2.87-11.73,2.87-18.01,0-27.52-19.34-50.59-45.14-56.35-4.06-.92-8.28-1.39-12.6-1.39-4.84,0-9.55.61-14.05,1.73-25.07,6.29-43.69,29.01-43.69,56.01,0,11.46,3.36,22.16,9.14,31.14,4.87,7.57,11.45,13.94,19.19,18.53,8.62,5.12,18.67,8.07,29.41,8.07,6.1,0,11.98-.95,17.51-2.71,8.15-2.6,17.08-.29,23.24,5.65l32.98,31.81h39.1l-51.86-50.43ZM539.69,697.9c-17.3,0-31.37-14.07-31.37-31.37s14.07-31.37,31.37-31.37,31.37,14.07,31.37,31.37-14.07,31.37-31.37,31.37Z"/>
    </g>
  </g>
</svg>